HIERARCHY
ROOT Hips
{
 OFFSET 0.000000 0.000000 0.000000
 CHANNELS 6 Xposition Yposition Zposition Yrotation Xrotation Zrotation
 JOINT Chest
 {
  OFFSET 0.000000 10.678932 0.006280
  CHANNELS 3 Yrotation Xrotation Zrotation
  JOINT Chest2
  {
   OFFSET 0.000000 10.491159 -0.011408
   CHANNELS 3 Yrotation Xrotation Zrotation
   JOINT Chest3
   {
    OFFSET 0.000000 9.479342 0.000000
    CHANNELS 3 Yrotation Xrotation Zrotation
    JOINT Chest4
    {
     OFFSET 0.000000 9.479342 0.000000
     CHANNELS 3 Yrotation Xrotation Zrotation
     JOINT Neck
     {
      OFFSET 0.000000 13.535332 0.000000
      CHANNELS 3 Yrotation Xrotation Zrotation
      JOINT Head
      {
       OFFSET 0.000000 8.819083 -0.027129
       CHANNELS 3 Yrotation Xrotation Zrotation
       End Site
       {
        OFFSET 0.000000 16.966594 -0.014170
       }
      }
     }
     JOINT RightCollar
     {
      OFFSET -3.012546 7.545150 0.000000
      CHANNELS 3 Yrotation Xrotation Zrotation
      JOINT RightShoulder
      {
       OFFSET -13.683099 0.000000 0.000000
       CHANNELS 3 Yrotation Xrotation Zrotation
       JOINT RightElbow
       {
        OFFSET -26.359998 0.000000 0.000000
        CHANNELS 3 Yrotation Xrotation Zrotation
        JOINT RightWrist
        {
         OFFSET -21.746691 0.000000 0.008601
         CHANNELS 3 Yrotation Xrotation Zrotation
         End Site
         {
          OFFSET -16.348058 0.000000 0.000000
         }
        }
       }
      }
     }
     JOINT LeftCollar
     {
      OFFSET 3.012546 7.545150 0.000000
      CHANNELS 3 Yrotation Xrotation Zrotation
      JOINT LeftShoulder
      {
       OFFSET 13.683099 0.000000 0.000000
       CHANNELS 3 Yrotation Xrotation Zrotation
       JOINT LeftElbow
       {
        OFFSET 26.359998 0.000000 0.000000
        CHANNELS 3 Yrotation Xrotation Zrotation
        JOINT LeftWrist
        {
         OFFSET 21.746691 0.000000 0.008601
         CHANNELS 3 Yrotation Xrotation Zrotation
         End Site
         {
          OFFSET 16.348058 0.000000 0.000000
         }
        }
       }
      }
     }
    }
   }
  }
 }
 JOINT RightHip
 {
  OFFSET -8.622479 -0.030774 -0.003140
  CHANNELS 3 Yrotation Xrotation Zrotation
  JOINT RightKnee
  {
   OFFSET 0.000000 -37.209160 -0.002630
   CHANNELS 3 Yrotation Xrotation Zrotation
   JOINT RightAnkle
   {
    OFFSET 0.000000 -37.343279 -0.058479
    CHANNELS 3 Yrotation Xrotation Zrotation
    JOINT RightToe
    {
     OFFSET 0.000000 -8.903465 15.088070
     CHANNELS 3 Yrotation Xrotation Zrotation
     End Site
     {
      OFFSET 0.000000 -1.471739 6.884388
     }
    }
   }
  }
 }
 JOINT LeftHip
 {
  OFFSET 8.622479 -0.030774 -0.003140
  CHANNELS 3 Yrotation Xrotation Zrotation
  JOINT LeftKnee
  {
   OFFSET 0.000000 -37.209160 -0.002630
   CHANNELS 3 Yrotation Xrotation Zrotation
   JOINT LeftAnkle
   {
    OFFSET 0.000000 -37.343279 -0.058479
    CHANNELS 3 Yrotation Xrotation Zrotation
    JOINT LeftToe
    {
     OFFSET 0.000000 -8.903465 15.088070
     CHANNELS 3 Yrotation Xrotation Zrotation
     End Site
     {
      OFFSET 0.000000 -1.471739 6.884388
     }
    }
   }
  }
 }
}
MOTION
Frames: 14
Frame Time: 0.200000
-2.290190 83.315683 -16.811400 0.000000 -5.826342 0.000000 0.000000 11.116423 0.000000 0.000000 -5.290081 0.000000 0.000000 0.000000 0.000000 0.000000 0.000000 0.000000 0.000000 12.665069 0.000000 0.000000 0.575450 0.000000 0.000000 0.000000 0.000000 0.000000 0.000000 0.000000 2.337306 0.000000 0.000000 -2.337306 0.000000 0.000000 0.000000 0.000000 0.000000 0.000000 0.000000 0.000000 -2.337306 0.000000 0.000000 2.337306 0.000000 0.000000 0.000000 8.578828 0.000000 0.000000 1.905768 0.000000 0.000000 -4.658254 0.000000 0.000000 0.000000 0.000000 0.000000 8.578828 0.000000 0.000000 1.905768 0.000000 0.000000 -4.658254 0.000000 0.000000 0.000000 0.000000
72.854077 81.870710 -239.881682 -19.352678 -9.064465 -1.476558 -2.320887 4.637047 0.225175 -0.090917 0.176816 0.021059 -0.148959 0.289780 0.034365 -2.202478 4.320150 0.434174 -2.042513 15.662998 0.126089 -3.857089 -7.066975 0.988590 0.958927 -2.730522 -1.850006 13.664936 28.748444 56.065081 104.764834 17.336010 54.541061 30.764879 5.652186 -12.847307 -2.183585 -2.784903 4.917985 -31.614557 24.811778 -68.066574 -99.034758 27.353949 -56.587976 -30.019384 11.494267 47.405938 -7.426518 11.088317 -16.499657 -2.951418 -0.316689 -0.361886 7.796933 -2.808849 16.708288 0.135278 -0.381475 0.065717 -0.379842 19.851891 14.679176 17.481860 -3.767711 0.406698 -1.215523 -4.166103 -16.299130 0.057532 0.251698 0.023640
72.866398 81.854009 -239.847493 -19.648686 -8.806343 -1.198439 -2.538344 4.524480 0.280032 -0.099898 0.172941 0.021994 -0.163652 0.283391 0.035880 -2.414886 4.215622 0.449996 -1.986068 15.629981 -0.059701 -3.683995 -7.135766 0.622270 1.329319 -2.499478 -2.021785 13.997041 28.476490 55.999272 104.870411 18.384308 55.120697 32.813099 6.535605 -15.670692 -1.776831 -2.675562 4.564526 -31.188097 24.801715 -68.167218 -99.190962 27.602914 -56.561950 -30.150712 11.645626 47.502519 -7.515811 10.600339 -16.795114 -2.732667 -0.099657 -0.371161 7.903228 -2.961102 16.700850 0.108240 -0.339919 0.071890 0.171696 19.663898 14.540566 17.256363 -3.891490 0.324752 -1.243999 -4.196562 -16.274813 0.051386 0.243914 0.034267
72.848343 81.858410 -239.975236 -19.825472 -9.092000 -1.375158 -2.285712 4.751494 0.344960 -0.092390 0.184153 0.025339 -0.151194 0.301468 0.041324 -2.189899 4.411228 0.525158 -1.945356 15.806575 -0.052554 -3.606929 -6.808654 0.615453 1.063567 -2.498769 -2.150672 13.886676 28.513868 56.217332 104.987908 18.794859 55.124309 33.196907 6.818173 -16.149069 -1.938034 -2.739024 4.430738 -31.162943 24.813471 -68.077295 -99.170610 27.667901 -56.469468 -30.149354 11.647185 47.588771 -7.302017 10.765937 -16.600511 -2.607655 -0.016681 -0.323195 7.886473 -2.908924 16.622883 0.112019 -0.350733 0.059750 0.182840 19.973583 14.679998 17.490412 -3.873920 0.397755 -1.221234 -4.259364 -16.295327 0.072461 0.288210 0.027083
72.733041 81.850015 -240.130737 -19.740947 -9.015422 -1.375053 -2.200240 4.868465 0.282096 -0.089716 0.190553 0.020863 -0.146739 0.311758 0.033976 -2.107588 4.514756 0.414206 -1.393178 16.164331 -0.064750 -2.568044 -6.155731 0.383121 1.080280 -2.597165 -1.897677 14.003121 28.238405 56.592640 105.864478 20.473318 55.803843 34.866394 8.173336 -19.236687 -1.954417 -2.740291 4.259564 -30.565656 24.481871 -68.156542 -99.363190 28.485931 -56.610138 -30.464337 11.864784 47.849437 -7.468372 10.564737 -16.528846 -2.486066 0.087382 -0.302439 7.914035 -2.991840 16.570763 0.070843 -0.258924 0.032180 0.745117 19.750844 15.069829 17.145328 -3.935442 0.244097 -1.404470 -4.105934 -16.360453 0.062670 0.236476 0.041800
72.729273 81.867769 -240.307232 -19.599712 -9.253411 -1.422341 -1.952125 5.046035 0.058086 -0.079837 0.199204 0.012600 -0.130527 0.325746 0.020460 -1.865057 4.676236 0.222836 -1.454817 16.432110 0.042241 -2.716955 -5.655033 0.598406 0.884160 -2.744836 -1.551370 13.731190 28.187793 56.598701 105.622794 20.198797 55.765801 34.086460 7.744713 -17.760063 -2.403856 -2.641955 4.609394 -30.272133 24.401345 -67.749489 -99.868240 28.317121 -56.579610 -30.247375 11.682475 47.446569 -7.405194 10.759477 -16.439376 -2.530369 0.072874 -0.338880 7.832567 -2.845158 16.602429 0.081713 -0.280928 0.049636 0.470807 19.860308 15.123826 17.318376 -3.776558 0.248065 -1.422070 -4.107960 -16.423374 0.065965 0.240325 0.043970
72.713217 81.880666 -240.431363 -19.372343 -9.249899 -1.383796 -1.787813 5.177517 -0.209682 -0.072599 0.206590 0.001429 -0.118644 0.337625 0.002200 -1.688575 4.797797 -0.034493 -1.578361 16.173181 0.125778 -2.981161 -6.131230 0.804107 0.760947 -2.780174 -1.199343 13.367551 28.192227 56.851334 105.354561 20.225853 55.620865 33.790325 7.661913 -16.977974 -2.579092 -2.559069 4.964246 -29.919547 24.271589 -67.402746 -100.305393 28.115494 -56.470573 -29.927439 11.520034 46.899419 -7.524653 10.781005 -16.443114 -2.774539 0.010964 -0.374046 7.914892 -2.778089 16.588512 0.083333 -0.267459 0.055969 0.274636 19.776251 15.164631 17.344204 -3.744006 0.132400 -1.477375 -4.055883 -16.413190 0.051530 0.211859 0.027549
72.666320 81.880668 -240.444302 -18.736616 -9.212120 -1.431574 -1.860625 5.448080 -0.242710 -0.079665 0.228812 0.000650 -0.129777 0.372743 0.000897 -1.755983 5.032166 -0.059349 -1.566596 15.780945 0.082484 -2.950960 -6.860905 0.729004 0.555096 -2.949118 -0.953820 11.977929 28.529992 56.984358 106.280326 20.508936 54.944338 33.234989 7.597854 -16.064334 -2.859619 -2.953219 4.826179 -30.197448 24.311010 -67.600912 -99.835241 28.361889 -56.297108 -29.562135 11.509018 47.150819 -7.679729 10.973065 -16.349333 -3.158392 0.042188 -0.451445 7.825856 -2.849638 16.583054 0.092547 -0.289236 0.051919 0.345553 19.603468 15.413589 17.131156 -3.849274 0.012757 -1.834541 -3.979037 -16.432792 0.049383 0.210758 0.036764
72.713380 81.869084 -240.370236 -18.715848 -8.701691 -1.207889 -1.908490 5.294721 -0.305760 -0.079377 0.217501 -0.002607 -0.129503 0.354831 -0.004408 -1.795677 4.900500 -0.132240 -1.759115 15.957771 0.160163 -3.334450 -6.526033 0.939355 0.445062 -2.945196 -0.898845 11.722910 28.336500 57.113493 106.012184 20.287060 54.892552 32.891813 7.258085 -15.487959 -2.946186 -2.799871 5.024584 -30.188752 24.216366 -67.559201 -99.970917 28.399769 -56.223053 -29.497660 11.439938 46.973137 -8.031219 10.514576 -16.649106 -3.000868 -0.131692 -0.412376 7.881256 -2.845020 16.607898 0.088596 -0.264591 0.061356 0.220086 19.216723 15.105436 17.213916 -3.952311 -0.022823 -1.840994 -3.945554 -16.381769 0.036702 0.179450 0.027519
72.861530 81.853746 -240.113002 -19.042666 -8.027803 -0.835575 -1.987231 4.938078 -0.298395 -0.077073 0.191721 -0.003484 -0.126187 0.313876 -0.005839 -1.853518 4.591111 -0.154738 -1.833156 16.198756 0.039374 -3.423304 -6.080414 0.734640 0.530122 -2.886642 -0.967512 11.958644 28.121908 57.125805 105.594680 20.047831 54.974094 32.734931 7.052123 -14.768673 -2.799817 -2.639418 5.036628 -30.286877 24.239778 -67.506728 -99.960760 28.273207 -56.039327 -29.542234 11.323583 46.666639 -8.494091 9.740997 -17.216599 -2.558137 -0.195438 -0.335364 8.026462 -2.848759 16.667625 0.065412 -0.216179 0.056141 -0.109183 18.805040 14.516359 17.595986 -3.813586 -0.181421 -1.686774 -4.007801 -16.209437 0.027984 0.090333 0.028769
72.860944 81.835350 -239.945506 -19.010562 -7.717976 -0.784711 -2.049723 4.742456 -0.265804 -0.077785 0.178835 -0.001929 -0.127570 0.293285 -0.003291 -1.927728 4.417893 -0.119062 -1.768037 16.323918 -0.018674 -3.278894 -5.851156 0.599954 0.434301 -2.751345 -0.996861 11.495732 28.169970 57.039443 105.477166 19.775939 54.594485 32.330112 6.727971 -14.250069 -2.787689 -2.384156 4.897762 -30.129947 24.187172 -67.313382 -100.124108 28.294113 -55.968688 -29.717233 11.412669 46.780220 -8.567767 9.598195 -17.286296 -2.488368 -0.246107 -0.346108 7.988332 -2.952434 16.672765 0.071789 -0.212729 0.042047 -0.163691 18.618461 14.436647 17.624272 -3.761673 -0.216654 -1.629092 -4.142774 -16.190620 0.029179 0.150682 0.005336
72.753593 81.821180 -239.911888 -18.979700 -7.740528 -1.088204 -1.976246 4.741031 -0.154907 -0.075651 0.177797 0.002968 -0.124095 0.291665 0.004746 -1.879593 4.415823 0.004203 -1.775794 16.379257 -0.019524 -3.291957 -5.748262 0.599698 0.264627 -2.680944 -1.092928 11.018450 28.138498 56.789812 105.639921 19.709835 54.352455 31.796692 6.126347 -13.514751 -2.918437 -2.391367 4.644615 -30.050226 24.296120 -67.269274 -100.150158 28.430139 -56.074552 -29.841876 11.432678 46.985722 -8.122772 9.892517 -16.868425 -2.631285 -0.277422 -0.335723 7.815731 -3.058021 16.650402 0.087169 -0.244493 0.047729 -0.075286 18.801886 14.710566 17.676985 -3.913148 -0.055453 -1.573954 -4.286496 -16.299949 0.042209 0.213860 0.015052
72.775901 81.835721 -239.641698 -19.818070 -8.453229 -1.198866 -1.787489 5.146425 -0.038540 -0.073939 0.205374 0.011260 -0.120823 0.335663 0.018265 -1.712309 4.777553 0.193585 -1.659107 16.140052 -0.149910 -3.032285 -6.198143 0.321339 0.778581 -2.581149 -0.990030 10.503459 28.902724 57.156314 105.836670 20.036292 53.949723 31.074213 6.170780 -12.998952 -2.512702 -2.259191 4.316639 -30.087043 24.483081 -67.500664 -100.426994 29.171852 -55.919908 -29.951749 11.457869 46.767730 -6.810186 9.974783 -16.757081 -1.710007 1.447250 -0.322004 7.014066 -4.281567 16.439816 0.157327 -0.368079 0.134931 -1.149883 19.314782 14.168376 17.055415 -1.868567 0.551256 0.584185 -6.478727 -16.162822 0.043435 0.396057 -0.085982
71.223004 79.273311 -238.186693 -21.097682 -8.617816 -1.998333 -1.472222 6.244731 0.909995 -0.066439 0.288169 0.034057 -0.107388 0.466169 0.054925 -1.279744 5.676714 0.610516 -1.645538 13.466443 -0.482393 -2.919483 -11.170262 -0.248410 -0.122033 -0.150838 -1.575386 6.331132 31.413263 60.432940 107.341806 22.169760 45.566306 23.205948 2.109895 0.671857 -2.140008 -0.664389 6.954687 -33.512393 23.008674 -73.764000 -98.605175 33.898810 -49.696126 -29.766904 11.665944 44.114227 -4.464645 -1.588322 -14.115341 6.382811 28.261785 -0.234549 3.222731 -20.867992 12.322202 -0.273619 0.311993 0.678924 -4.525011 7.240375 18.599563 14.463521 28.899467 0.705397 4.325623 -22.686863 -15.099695 0.177545 -0.600650 -0.855218
